SetFactory("OpenCASCADE");
//+
Mesh.CharacteristicLengthFactor = 0.2;
//+
Merge "Revolve_0.stp";
//+
Merge "Revolve_1.stp";
//+
Merge "Revolve_2.stp";
//+
Merge "Revolve_3.stp";
//+
Delete {
 Volume{1}; 
}
//+
Delete {
 Surface{109}; 
}
//+
Delete {
 Surface{108}; 
}
//+
Delete {
 Volume{2}; 
}
//+
Delete {
 Surface{218}; 
}
//+
Delete {
 Surface{217}; 
}
//+
Delete {
 Volume{3}; 
}
//+
Delete {
 Surface{327}; 
}
//+
Delete {
 Surface{326}; 
}
//+
Delete {
 Volume{4}; 
}
//+
Delete {
 Surface{436}; 
}
//+
Delete {
 Surface{435}; 
}
//+
Curve Loop(5000) = {3 ,7 ,10 ,13 ,16 ,19 ,22 ,25 ,28 ,31 ,34 ,37 ,40 ,43 ,46 ,49 ,52 ,55 ,58 ,61 ,64 ,67 ,70 ,73 ,76 ,79 ,80 ,83 ,86 ,89 ,92 ,95 ,98 ,101 ,104 ,107 ,110 ,113 ,116 ,119 ,122 ,125 ,128 ,131 ,134 ,137 ,140 ,143 ,146 ,149 ,152 ,155 ,158 ,161 ,164 ,167 ,170 ,173 ,176 ,179 ,182 ,185 ,188 ,191 ,194 ,197 ,200 ,203 ,206 ,209 ,212 ,215 ,218 ,221 ,224 ,227 ,230 ,233 ,236 ,239 ,242 ,245 ,248 ,251 ,254 ,257 ,260 ,263 ,266 ,269 ,272 ,275 ,278 ,281 ,284 ,287 ,290 ,293 ,296 ,299 ,302 ,305 ,308 ,311 ,314 ,317 ,321};
//+
Curve Loop(5100) = {1 ,5 ,8 ,11 ,14 ,17 ,20 ,23 ,26 ,29 ,32 ,35 ,38 ,41 ,44 ,47 ,50 ,53 ,56 ,59 ,62 ,65 ,68 ,71 ,74 ,77 ,82 ,85 ,88 ,91 ,94 ,97 ,100 ,103 ,106 ,109 ,112 ,115 ,118 ,121 ,124 ,127 ,130 ,133 ,136 ,139 ,142 ,145 ,148 ,151 ,154 ,157 ,160 ,163 ,166 ,169 ,172 ,175 ,178 ,181 ,184 ,187 ,190 ,193 ,196 ,199 ,202 ,205 ,208 ,211 ,214 ,217 ,220 ,223 ,226 ,229 ,232 ,235 ,238 ,241 ,244 ,247 ,250 ,253 ,256 ,259 ,262 ,265 ,268 ,271 ,274 ,277 ,280 ,283 ,286 ,289 ,292 ,295 ,298 ,301 ,304 ,307 ,310 ,313 ,316 ,319 ,320};
//+
Curve Loop(5001) = {324 ,328 ,331 ,334 ,337 ,340 ,343 ,346 ,349 ,352 ,355 ,358 ,361 ,364 ,367 ,370 ,373 ,376 ,379 ,382 ,385 ,388 ,391 ,394 ,397 ,400 ,401 ,404 ,407 ,410 ,413 ,416 ,419 ,422 ,425 ,428 ,431 ,434 ,437 ,440 ,443 ,446 ,449 ,452 ,455 ,458 ,461 ,464 ,467 ,470 ,473 ,476 ,479 ,482 ,485 ,488 ,491 ,494 ,497 ,500 ,503 ,506 ,509 ,512 ,515 ,518 ,521 ,524 ,527 ,530 ,533 ,536 ,539 ,542 ,545 ,548 ,551 ,554 ,557 ,560 ,563 ,566 ,569 ,572 ,575 ,578 ,581 ,584 ,587 ,590 ,593 ,596 ,599 ,602 ,605 ,608 ,611 ,614 ,617 ,620 ,623 ,626 ,629 ,632 ,635 ,638 ,642};
//+
Curve Loop(5101) = {322 ,326 ,329 ,332 ,335 ,338 ,341 ,344 ,347 ,350 ,353 ,356 ,359 ,362 ,365 ,368 ,371 ,374 ,377 ,380 ,383 ,386 ,389 ,392 ,395 ,398 ,403 ,406 ,409 ,412 ,415 ,418 ,421 ,424 ,427 ,430 ,433 ,436 ,439 ,442 ,445 ,448 ,451 ,454 ,457 ,460 ,463 ,466 ,469 ,472 ,475 ,478 ,481 ,484 ,487 ,490 ,493 ,496 ,499 ,502 ,505 ,508 ,511 ,514 ,517 ,520 ,523 ,526 ,529 ,532 ,535 ,538 ,541 ,544 ,547 ,550 ,553 ,556 ,559 ,562 ,565 ,568 ,571 ,574 ,577 ,580 ,583 ,586 ,589 ,592 ,595 ,598 ,601 ,604 ,607 ,610 ,613 ,616 ,619 ,622 ,625 ,628 ,631 ,634 ,637 ,640 ,641};
//+
Curve Loop(5002) = {645 ,649 ,652 ,655 ,658 ,661 ,664 ,667 ,670 ,673 ,676 ,679 ,682 ,685 ,688 ,691 ,694 ,697 ,700 ,703 ,706 ,709 ,712 ,715 ,718 ,721 ,722 ,725 ,728 ,731 ,734 ,737 ,740 ,743 ,746 ,749 ,752 ,755 ,758 ,761 ,764 ,767 ,770 ,773 ,776 ,779 ,782 ,785 ,788 ,791 ,794 ,797 ,800 ,803 ,806 ,809 ,812 ,815 ,818 ,821 ,824 ,827 ,830 ,833 ,836 ,839 ,842 ,845 ,848 ,851 ,854 ,857 ,860 ,863 ,866 ,869 ,872 ,875 ,878 ,881 ,884 ,887 ,890 ,893 ,896 ,899 ,902 ,905 ,908 ,911 ,914 ,917 ,920 ,923 ,926 ,929 ,932 ,935 ,938 ,941 ,944 ,947 ,950 ,953 ,956 ,959 ,963};
//+
Curve Loop(5102) = {643 ,647 ,650 ,653 ,656 ,659 ,662 ,665 ,668 ,671 ,674 ,677 ,680 ,683 ,686 ,689 ,692 ,695 ,698 ,701 ,704 ,707 ,710 ,713 ,716 ,719 ,724 ,727 ,730 ,733 ,736 ,739 ,742 ,745 ,748 ,751 ,754 ,757 ,760 ,763 ,766 ,769 ,772 ,775 ,778 ,781 ,784 ,787 ,790 ,793 ,796 ,799 ,802 ,805 ,808 ,811 ,814 ,817 ,820 ,823 ,826 ,829 ,832 ,835 ,838 ,841 ,844 ,847 ,850 ,853 ,856 ,859 ,862 ,865 ,868 ,871 ,874 ,877 ,880 ,883 ,886 ,889 ,892 ,895 ,898 ,901 ,904 ,907 ,910 ,913 ,916 ,919 ,922 ,925 ,928 ,931 ,934 ,937 ,940 ,943 ,946 ,949 ,952 ,955 ,958 ,961 ,962};
//+
Curve Loop(5003) = {966 ,970 ,973 ,976 ,979 ,982 ,985 ,988 ,991 ,994 ,997 ,1000 ,1003 ,1006 ,1009 ,1012 ,1015 ,1018 ,1021 ,1024 ,1027 ,1030 ,1033 ,1036 ,1039 ,1042 ,1043 ,1046 ,1049 ,1052 ,1055 ,1058 ,1061 ,1064 ,1067 ,1070 ,1073 ,1076 ,1079 ,1082 ,1085 ,1088 ,1091 ,1094 ,1097 ,1100 ,1103 ,1106 ,1109 ,1112 ,1115 ,1118 ,1121 ,1124 ,1127 ,1130 ,1133 ,1136 ,1139 ,1142 ,1145 ,1148 ,1151 ,1154 ,1157 ,1160 ,1163 ,1166 ,1169 ,1172 ,1175 ,1178 ,1181 ,1184 ,1187 ,1190 ,1193 ,1196 ,1199 ,1202 ,1205 ,1208 ,1211 ,1214 ,1217 ,1220 ,1223 ,1226 ,1229 ,1232 ,1235 ,1238 ,1241 ,1244 ,1247 ,1250 ,1253 ,1256 ,1259 ,1262 ,1265 ,1268 ,1271 ,1274 ,1277 ,1280 ,1284};
//+
Curve Loop(5103) = {964 ,968 ,971 ,974 ,977 ,980 ,983 ,986 ,989 ,992 ,995 ,998 ,1001 ,1004 ,1007 ,1010 ,1013 ,1016 ,1019 ,1022 ,1025 ,1028 ,1031 ,1034 ,1037 ,1040 ,1045 ,1048 ,1051 ,1054 ,1057 ,1060 ,1063 ,1066 ,1069 ,1072 ,1075 ,1078 ,1081 ,1084 ,1087 ,1090 ,1093 ,1096 ,1099 ,1102 ,1105 ,1108 ,1111 ,1114 ,1117 ,1120 ,1123 ,1126 ,1129 ,1132 ,1135 ,1138 ,1141 ,1144 ,1147 ,1150 ,1153 ,1156 ,1159 ,1162 ,1165 ,1168 ,1171 ,1174 ,1177 ,1180 ,1183 ,1186 ,1189 ,1192 ,1195 ,1198 ,1201 ,1204 ,1207 ,1210 ,1213 ,1216 ,1219 ,1222 ,1225 ,1228 ,1231 ,1234 ,1237 ,1240 ,1243 ,1246 ,1249 ,1252 ,1255 ,1258 ,1261 ,1264 ,1267 ,1270 ,1273 ,1276 ,1279 ,1282 ,1283};
//+
Plane Surface(5100) = {5100};
//+
Plane Surface(5000) = {5000};
//+
Physical Surface("surface_0", 5000) = {1 ,2 ,3 ,4 ,5 ,6 ,7 ,8 ,9 ,10 ,11 ,12 ,13 ,14 ,15 ,16 ,17 ,18 ,19 ,20 ,21 ,22 ,23 ,24 ,25 ,26 ,27 ,28 ,29 ,30 ,31 ,32 ,33 ,34 ,35 ,36 ,37 ,38 ,39 ,40 ,41 ,42 ,43 ,44 ,45 ,46 ,47 ,48 ,49 ,50 ,51 ,52 ,53 ,54 ,55 ,56 ,57 ,58 ,59 ,60 ,61 ,62 ,63 ,64 ,65 ,66 ,67 ,68 ,69 ,70 ,71 ,72 ,73 ,74 ,75 ,76 ,77 ,78 ,79 ,80 ,81 ,82 ,83 ,84 ,85 ,86 ,87 ,88 ,89 ,90 ,91 ,92 ,93 ,94 ,95 ,96 ,97 ,98 ,99 ,100 ,101 ,102 ,103 ,104 ,105 ,106 ,107 ,5000,5100};
//+
Surface Loop (5000) = {1 ,2 ,3 ,4 ,5 ,6 ,7 ,8 ,9 ,10 ,11 ,12 ,13 ,14 ,15 ,16 ,17 ,18 ,19 ,20 ,21 ,22 ,23 ,24 ,25 ,26 ,27 ,28 ,29 ,30 ,31 ,32 ,33 ,34 ,35 ,36 ,37 ,38 ,39 ,40 ,41 ,42 ,43 ,44 ,45 ,46 ,47 ,48 ,49 ,50 ,51 ,52 ,53 ,54 ,55 ,56 ,57 ,58 ,59 ,60 ,61 ,62 ,63 ,64 ,65 ,66 ,67 ,68 ,69 ,70 ,71 ,72 ,73 ,74 ,75 ,76 ,77 ,78 ,79 ,80 ,81 ,82 ,83 ,84 ,85 ,86 ,87 ,88 ,89 ,90 ,91 ,92 ,93 ,94 ,95 ,96 ,97 ,98 ,99 ,100 ,101 ,102 ,103 ,104 ,105 ,106 ,107 , 5000, 5100};
//+
Volume(1) = {5000};
//+
Physical Volume("volume_1") = {1};
//+
Plane Surface(5101) = {5101,5100};
//+
Plane Surface(5001) = {5001,5000};
//+
Physical Surface("surface_1", 5001) = {110 ,111 ,112 ,113 ,114 ,115 ,116 ,117 ,118 ,119 ,120 ,121 ,122 ,123 ,124 ,125 ,126 ,127 ,128 ,129 ,130 ,131 ,132 ,133 ,134 ,135 ,136 ,137 ,138 ,139 ,140 ,141 ,142 ,143 ,144 ,145 ,146 ,147 ,148 ,149 ,150 ,151 ,152 ,153 ,154 ,155 ,156 ,157 ,158 ,159 ,160 ,161 ,162 ,163 ,164 ,165 ,166 ,167 ,168 ,169 ,170 ,171 ,172 ,173 ,174 ,175 ,176 ,177 ,178 ,179 ,180 ,181 ,182 ,183 ,184 ,185 ,186 ,187 ,188 ,189 ,190 ,191 ,192 ,193 ,194 ,195 ,196 ,197 ,198 ,199 ,200 ,201 ,202 ,203 ,204 ,205 ,206 ,207 ,208 ,209 ,210 ,211 ,212 ,213 ,214 ,215 ,216 ,5001,5101};
//+
Surface Loop (5001) = {110 ,111 ,112 ,113 ,114 ,115 ,116 ,117 ,118 ,119 ,120 ,121 ,122 ,123 ,124 ,125 ,126 ,127 ,128 ,129 ,130 ,131 ,132 ,133 ,134 ,135 ,136 ,137 ,138 ,139 ,140 ,141 ,142 ,143 ,144 ,145 ,146 ,147 ,148 ,149 ,150 ,151 ,152 ,153 ,154 ,155 ,156 ,157 ,158 ,159 ,160 ,161 ,162 ,163 ,164 ,165 ,166 ,167 ,168 ,169 ,170 ,171 ,172 ,173 ,174 ,175 ,176 ,177 ,178 ,179 ,180 ,181 ,182 ,183 ,184 ,185 ,186 ,187 ,188 ,189 ,190 ,191 ,192 ,193 ,194 ,195 ,196 ,197 ,198 ,199 ,200 ,201 ,202 ,203 ,204 ,205 ,206 ,207 ,208 ,209 ,210 ,211 ,212 ,213 ,214 ,215 ,216 ,1 ,2 ,3 ,4 ,5 ,6 ,7 ,8 ,9 ,10 ,11 ,12 ,13 ,14 ,15 ,16 ,17 ,18 ,19 ,20 ,21 ,22 ,23 ,24 ,25 ,26 ,27 ,28 ,29 ,30 ,31 ,32 ,33 ,34 ,35 ,36 ,37 ,38 ,39 ,40 ,41 ,42 ,43 ,44 ,45 ,46 ,47 ,48 ,49 ,50 ,51 ,52 ,53 ,54 ,55 ,56 ,57 ,58 ,59 ,60 ,61 ,62 ,63 ,64 ,65 ,66 ,67 ,68 ,69 ,70 ,71 ,72 ,73 ,74 ,75 ,76 ,77 ,78 ,79 ,80 ,81 ,82 ,83 ,84 ,85 ,86 ,87 ,88 ,89 ,90 ,91 ,92 ,93 ,94 ,95 ,96 ,97 ,98 ,99 ,100 ,101 ,102 ,103 ,104 ,105 ,106 ,107 , 5001, 5101};
//+
Volume(2) = {5001};
//+
Physical Volume("volume_2") = {2};
//+
Plane Surface(5102) = {5102,5101};
//+
Plane Surface(5002) = {5002,5001};
//+
Physical Surface("surface_2", 5002) = {219 ,220 ,221 ,222 ,223 ,224 ,225 ,226 ,227 ,228 ,229 ,230 ,231 ,232 ,233 ,234 ,235 ,236 ,237 ,238 ,239 ,240 ,241 ,242 ,243 ,244 ,245 ,246 ,247 ,248 ,249 ,250 ,251 ,252 ,253 ,254 ,255 ,256 ,257 ,258 ,259 ,260 ,261 ,262 ,263 ,264 ,265 ,266 ,267 ,268 ,269 ,270 ,271 ,272 ,273 ,274 ,275 ,276 ,277 ,278 ,279 ,280 ,281 ,282 ,283 ,284 ,285 ,286 ,287 ,288 ,289 ,290 ,291 ,292 ,293 ,294 ,295 ,296 ,297 ,298 ,299 ,300 ,301 ,302 ,303 ,304 ,305 ,306 ,307 ,308 ,309 ,310 ,311 ,312 ,313 ,314 ,315 ,316 ,317 ,318 ,319 ,320 ,321 ,322 ,323 ,324 ,325 ,5002,5102};
//+
Surface Loop (5002) = {219 ,220 ,221 ,222 ,223 ,224 ,225 ,226 ,227 ,228 ,229 ,230 ,231 ,232 ,233 ,234 ,235 ,236 ,237 ,238 ,239 ,240 ,241 ,242 ,243 ,244 ,245 ,246 ,247 ,248 ,249 ,250 ,251 ,252 ,253 ,254 ,255 ,256 ,257 ,258 ,259 ,260 ,261 ,262 ,263 ,264 ,265 ,266 ,267 ,268 ,269 ,270 ,271 ,272 ,273 ,274 ,275 ,276 ,277 ,278 ,279 ,280 ,281 ,282 ,283 ,284 ,285 ,286 ,287 ,288 ,289 ,290 ,291 ,292 ,293 ,294 ,295 ,296 ,297 ,298 ,299 ,300 ,301 ,302 ,303 ,304 ,305 ,306 ,307 ,308 ,309 ,310 ,311 ,312 ,313 ,314 ,315 ,316 ,317 ,318 ,319 ,320 ,321 ,322 ,323 ,324 ,325 ,110 ,111 ,112 ,113 ,114 ,115 ,116 ,117 ,118 ,119 ,120 ,121 ,122 ,123 ,124 ,125 ,126 ,127 ,128 ,129 ,130 ,131 ,132 ,133 ,134 ,135 ,136 ,137 ,138 ,139 ,140 ,141 ,142 ,143 ,144 ,145 ,146 ,147 ,148 ,149 ,150 ,151 ,152 ,153 ,154 ,155 ,156 ,157 ,158 ,159 ,160 ,161 ,162 ,163 ,164 ,165 ,166 ,167 ,168 ,169 ,170 ,171 ,172 ,173 ,174 ,175 ,176 ,177 ,178 ,179 ,180 ,181 ,182 ,183 ,184 ,185 ,186 ,187 ,188 ,189 ,190 ,191 ,192 ,193 ,194 ,195 ,196 ,197 ,198 ,199 ,200 ,201 ,202 ,203 ,204 ,205 ,206 ,207 ,208 ,209 ,210 ,211 ,212 ,213 ,214 ,215 ,216 , 5002, 5102};
//+
Volume(3) = {5002};
//+
Physical Volume("volume_3") = {3};
//+
Plane Surface(5103) = {5103,5102};
//+
Plane Surface(5003) = {5003,5002};
//+
Physical Surface("surface_3", 5003) = {328 ,329 ,330 ,331 ,332 ,333 ,334 ,335 ,336 ,337 ,338 ,339 ,340 ,341 ,342 ,343 ,344 ,345 ,346 ,347 ,348 ,349 ,350 ,351 ,352 ,353 ,354 ,355 ,356 ,357 ,358 ,359 ,360 ,361 ,362 ,363 ,364 ,365 ,366 ,367 ,368 ,369 ,370 ,371 ,372 ,373 ,374 ,375 ,376 ,377 ,378 ,379 ,380 ,381 ,382 ,383 ,384 ,385 ,386 ,387 ,388 ,389 ,390 ,391 ,392 ,393 ,394 ,395 ,396 ,397 ,398 ,399 ,400 ,401 ,402 ,403 ,404 ,405 ,406 ,407 ,408 ,409 ,410 ,411 ,412 ,413 ,414 ,415 ,416 ,417 ,418 ,419 ,420 ,421 ,422 ,423 ,424 ,425 ,426 ,427 ,428 ,429 ,430 ,431 ,432 ,433 ,434 ,5003,5103};
//+
Surface Loop (5003) = {328 ,329 ,330 ,331 ,332 ,333 ,334 ,335 ,336 ,337 ,338 ,339 ,340 ,341 ,342 ,343 ,344 ,345 ,346 ,347 ,348 ,349 ,350 ,351 ,352 ,353 ,354 ,355 ,356 ,357 ,358 ,359 ,360 ,361 ,362 ,363 ,364 ,365 ,366 ,367 ,368 ,369 ,370 ,371 ,372 ,373 ,374 ,375 ,376 ,377 ,378 ,379 ,380 ,381 ,382 ,383 ,384 ,385 ,386 ,387 ,388 ,389 ,390 ,391 ,392 ,393 ,394 ,395 ,396 ,397 ,398 ,399 ,400 ,401 ,402 ,403 ,404 ,405 ,406 ,407 ,408 ,409 ,410 ,411 ,412 ,413 ,414 ,415 ,416 ,417 ,418 ,419 ,420 ,421 ,422 ,423 ,424 ,425 ,426 ,427 ,428 ,429 ,430 ,431 ,432 ,433 ,434 ,219 ,220 ,221 ,222 ,223 ,224 ,225 ,226 ,227 ,228 ,229 ,230 ,231 ,232 ,233 ,234 ,235 ,236 ,237 ,238 ,239 ,240 ,241 ,242 ,243 ,244 ,245 ,246 ,247 ,248 ,249 ,250 ,251 ,252 ,253 ,254 ,255 ,256 ,257 ,258 ,259 ,260 ,261 ,262 ,263 ,264 ,265 ,266 ,267 ,268 ,269 ,270 ,271 ,272 ,273 ,274 ,275 ,276 ,277 ,278 ,279 ,280 ,281 ,282 ,283 ,284 ,285 ,286 ,287 ,288 ,289 ,290 ,291 ,292 ,293 ,294 ,295 ,296 ,297 ,298 ,299 ,300 ,301 ,302 ,303 ,304 ,305 ,306 ,307 ,308 ,309 ,310 ,311 ,312 ,313 ,314 ,315 ,316 ,317 ,318 ,319 ,320 ,321 ,322 ,323 ,324 ,325 , 5003, 5103};
//+
Volume(4) = {5003};
//+
Physical Volume("volume_4") = {4};
//+
